PathFileType	4	(X/Y/Z)	/Users/niels/Desktop/University/Third Semester/Perception and Action/Exam/Gymnastics Motion Tracking/Code for Gym Tracking/Analyzed Data/Webcam_Backflip/id2_1_pure_Sports2D/id2_1_pure_Sports2D_px_person00.trc
DataRate	CameraRate	NumFrames	NumMarkers	Units	OrigDataRate	OrigDataStartFrame	OrigNumFrames
29.875	29.875	12	22	m	29.875	210	240
Frame#	Time	Hip			RHip			RKnee			RAnkle			RBigToe			RSmallToe			RHeel			LHip			LKnee			LAnkle			LBigToe			LSmallToe			LHeel			Neck			Head			Nose			RShoulder			RElbow			RWrist			LShoulder			LElbow			LWrist		
		X1	Y1	Z1	X2	Y2	Z2	X3	Y3	Z3	X4	Y4	Z4	X5	Y5	Z5	X6	Y6	Z6	X7	Y7	Z7	X8	Y8	Z8	X9	Y9	Z9	X10	Y10	Z10	X11	Y11	Z11	X12	Y12	Z12	X13	Y13	Z13	X14	Y14	Z14	X15	Y15	Z15	X16	Y16	Z16	X17	Y17	Z17	X18	Y18	Z18	X19	Y19	Z19	X20	Y20	Z20	X21	Y21	Z21	X22	Y22	Z22
210	7.02928870292887	0.9561287226132811	-0.5608676111604228	0.0	0.9587436850923653	-0.5617281476311614	0.0	0.9595747841624919	-0.6768372841466546	0.0	0.9373155824249834	-0.7985209255976943	0.0	0.9709357844356863	-0.8164490660762624	0.0	0.9587043014886829	-0.8217070616153981	0.0	0.9262121041979133	-0.8172845234633397	0.0	0.9596094914185348	-0.5592695390065198	0.0	0.962334696254778	-0.6751715269231668	0.0	0.9442838435094786	-0.791517339161559	0.0	0.9841627194383304	-0.8107966207141363	0.0	0.9816152976143983	-0.8052622557641441	0.0	0.9302750070003726	-0.8058759806637252	0.0	0.9589920886764256	-0.4061840072483706	0.0	0.980970813633434	-0.3286660053446664	0.0	0.985918242469055	-0.3683887595439254	0.0	0.9495296767015358	-0.41150472796363713	0.0	0.941258077352577	-0.3218860197351511	0.0	0.9394385242340676	-0.2505606170285356	0.0	0.9574770405373084	-0.41167556410792533	0.0	0.9499373988863422	-0.3270324506016377	0.0	0.9421455281156459	-0.2563235846463756	0.0
211	7.06276150627615	0.9570275427588623	-0.558728427337931	0.0	0.9597456006793139	-0.5598025469007721	0.0	0.9596128719850633	-0.6750357676444906	0.0	0.9377594377865666	-0.7975187948529558	0.0	0.9717626027152351	-0.815700609894969	0.0	0.9596010954970069	-0.8210800547347661	0.0	0.9262860063874006	-0.8161992926513687	0.0	0.9606975756843193	-0.5573583888169689	0.0	0.9622575152296432	-0.6734498970480666	0.0	0.9443373979239793	-0.7908088241463729	0.0	0.9840526480232072	-0.8105266695562453	0.0	0.9812956202925349	-0.8048727956441845	0.0	0.930001189062555	-0.8047616125336671	0.0	0.9602900652641865	-0.4054304918793211	0.0	0.982224130470289	-0.3281547023104983	0.0	0.9882853668669357	-0.3671476678617972	0.0	0.9505306495732684	-0.41046580622682	0.0	0.9395070506338535	-0.3241982678702583	0.0	0.9349174063048394	-0.2547082212304875	0.0	0.9590879975364544	-0.4108426610703991	0.0	0.9487320992964182	-0.33059154722982653	0.0	0.9389984366548583	-0.2606368791671093	0.0
212	7.09623430962343	0.9579565094347331	-0.5565089589111594	0.0	0.9604526363516876	-0.5575262260399444	0.0	0.9595743646826433	-0.6731866352285397	0.0	0.9381531208115584	-0.7959767548131674	0.0	0.9726056843425221	-0.8145001445371669	0.0	0.9605093497756922	-0.8198344982592697	0.0	0.9265292800296953	-0.8143154565206577	0.0	0.9620579568727496	-0.5552953568785357	0.0	0.961963898751911	-0.6717983176818104	0.0	0.9442600229169067	-0.789564192417301	0.0	0.9837541564406052	-0.8097637912850245	0.0	0.9809129618753212	-0.8041217816813232	0.0	0.9297028195317151	-0.8032170893074273	0.0	0.9618892967330755	-0.4045759445549865	0.0	0.9840973888771763	-0.32758633979759494	0.0	0.991066534656279	-0.366113526621366	0.0	0.9516649734226239	-0.4095300153029403	0.0	0.93721030759915	-0.32970046420182164	0.0	0.9296211268771709	-0.2633156014339082	0.0	0.9610659080684087	-0.4102867629932958	0.0	0.9476354879549225	-0.3376935144707603	0.0	0.9359546142149907	-0.26991392193973246	0.0
213	7.129707112970711	0.9588468279975144	-0.5542906321719673	0.0	0.9608879799907982	-0.5550280462935675	0.0	0.9593661027244815	-0.6714214822343042	0.0	0.9384659167126618	-0.7939604799949797	0.0	0.9733710780528019	-0.8128828353797148	0.0	0.9613654432378258	-0.8179920748130405	0.0	0.9270047028253053	-0.8117059974192596	0.0	0.9634373898921352	-0.5531444916228735	0.0	0.9613371898115435	-0.6703263353812002	0.0	0.9439177451183146	-0.787888076376385	0.0	0.9831988459376353	-0.8085189759332104	0.0	0.9803382404549125	-0.80300665048545	0.0	0.9292525292559624	-0.8013545993083625	0.0	0.9637392398030364	-0.40345746935280785	0.0	0.9866244621084659	-0.3268887857859112	0.0	0.9942922986096264	-0.36530473263721225	0.0	0.9532059919639877	-0.40867301619716256	0.0	0.9346516664838016	-0.3388387212139351	0.0	0.9242280408639626	-0.27747732065762376	0.0	0.9630733464009481	-0.4098819889753433	0.0	0.9464576866450087	-0.3483910347031372	0.0	0.9333774862312776	-0.28497285033644393	0.0
214	7.163179916317991	0.9596031738741907	-0.5521187761739392	0.0	0.9610770849263807	-0.5524413862536807	0.0	0.9588652435848404	-0.6697649631145586	0.0	0.9386548139277074	-0.7916116137666981	0.0	0.9739433913399735	-0.810971167845275	0.0	0.9620714740555426	-0.8157653724909592	0.0	0.9276637364071573	-0.8086596622295441	0.0	0.9644721354665142	-0.5509761564635729	0.0	0.9603173433626915	-0.6690516437103049	0.0	0.9432695916069699	-0.7859280381664692	0.0	0.982408001621009	-0.80685844787683	0.0	0.9794922527993184	-0.8016287524477775	0.0	0.9286511119974222	-0.7993230280214799	0.0	0.9657106787335863	-0.4019252404679999	0.0	0.9897598353580503	-0.3258832866616435	0.0	0.997905321539497	-0.3646171224157786	0.0	0.9552448967660117	-0.40787371691157437	0.0	0.932114380815095	-0.35173707047310976	0.0	0.9196781188312032	-0.29799697749100895	0.0	0.9648125538969574	-0.40947507523545995	0.0	0.9448404457827784	-0.36225559735481755	0.0	0.9315824856846088	-0.3062051618414508	0.0
215	7.196652719665272	0.9601242584596056	-0.5500783562388268	0.0	0.9609770365657774	-0.549975872992785	0.0	0.9579586035581974	-0.6681825193538226	0.0	0.9386716261555037	-0.7891313982719805	0.0	0.9743469891799805	-0.8089409166968944	0.0	0.9626680543955556	-0.8134708612151463	0.0	0.9283717849009697	-0.8056175777265777	0.0	0.9648649923652141	-0.5489335826501434	0.0	0.9589351835495508	-0.667879402910822	0.0	0.942378147430712	-0.7837780575935841	0.0	0.981526582740348	-0.8048930660565258	0.0	0.9784232031099135	-0.8001359435963922	0.0	0.9280079855725432	-0.7972542603803114	0.0	0.9676664415454116	-0.39992050624240655	0.0	0.9933353258293375	-0.32436887584598384	0.0	1.0017602159314898	-0.3638490649572463	0.0	0.9575335328453918	-0.40713340669602416	0.0	0.9298306891555356	-0.36826782335429215	0.0	0.9169724343889168	-0.3253181052688093	0.0	0.9661998803571834	-0.40896329042881885	0.0	0.9426031100968641	-0.3785735821642136	0.0	0.9309624788760038	-0.3335536112835751	0.0
216	7.230125523012552	0.9603090957335874	-0.548391032289509	0.0	0.9604979582281856	-0.5480100799508384	0.0	0.9565865075739296	-0.6667653990678187	0.0	0.9384824474262444	-0.7868211331474396	0.0	0.974705084497974	-0.8070339832938814	0.0	0.9632836740249334	-0.8114371626213114	0.0	0.9290043649294896	-0.8030669466659001	0.0	0.9644771363203609	-0.5473326052506347	0.0	0.9572745072048442	-0.6667674377760193	0.0	0.941356376971429	-0.7815678445817498	0.0	0.9807016520551021	-0.8028514109773455	0.0	0.9772677037872884	-0.798720796629534	0.0	0.9274224679497012	-0.7953115404472337	0.0	0.9695215788397775	-0.3975813114143665	0.0	0.9970149729478522	-0.32241587546985845	0.0	1.0055981257589683	-0.36287100069133527	0.0	0.9596367114665558	-0.40652007552399466	0.0	0.928132795625636	-0.38807089621970703	0.0	0.9169893463331894	-0.3594848908838988	0.0	0.967286141728168	-0.4083713360989585	0.0	0.9400969151592389	-0.3966225795473698	0.0	0.9321083907052711	-0.3665902078955686	0.0
217	7.263598326359832	0.9600546167600044	-0.5474438254559417	0.0	0.95961290533765	-0.5470801692179821	0.0	0.9547680075155865	-0.6658079839053898	0.0	0.9380896746839255	-0.7850483252437964	0.0	0.9750468240030928	-0.8055774591460858	0.0	0.9639216662063239	-0.8099856090306468	0.0	0.9295193366104862	-0.801411235352475	0.0	0.963230656911278	-0.5466591741061766	0.0	0.9554150616970726	-0.665903966833132	0.0	0.9403151153061478	-0.7795671343720487	0.0	0.9799280611027197	-0.8011177471377386	0.0	0.9761295552522073	-0.7976529203998981	0.0	0.926961408071009	-0.7937545270383995	0.0	0.9712394650621301	-0.39528350567638426	0.0	1.000294021561392	-0.3205170021710068	0.0	1.0090281029267967	-0.3617936942093795	0.0	0.9613086558085049	-0.4062251024024061	0.0	0.9277325028080862	-0.4103448752469188	0.0	0.9203290757427358	-0.39970388650949545	0.0	0.9680547214580749	-0.407926336067447	0.0	0.9383534145451412	-0.4157528266779102	0.0	0.9356305182879018	-0.40435226294065957	0.0
218	7.2970711297071125	0.9592626729281748	-0.5476534488969527	0.0	0.9584312371601336	-0.5476531895683112	0.0	0.9526135698088676	-0.6656518290615419	0.0	0.9375472138006158	-0.7841346359498154	0.0	0.9752913004353941	-0.8049421584291288	0.0	0.9644524446096517	-0.8094033554270477	0.0	0.9299257575919692	-0.8008669459093662	0.0	0.9610270944852246	-0.5473324708716346	0.0	0.9534058038947949	-0.6656273972206022	0.0	0.9393084910141944	-0.7781628530616023	0.0	0.9790438009454608	-0.8001258060328814	0.0	0.9749901765045181	-0.7972532121804619	0.0	0.9266702879399416	-0.7928917576391548	0.0	0.9728024092726923	-0.3935299088819426	0.0	1.00263853699601	-0.31931383047136014	0.0	1.0116808576624574	-0.36094255140424364	0.0	0.9626886730316156	-0.40654845541409373	0.0	0.9297055254453624	-0.4334845355881085	0.0	0.9271585089665683	-0.4434979405534269	0.0	0.9684079468250071	-0.4080343886433513	0.0	0.9388812914980056	-0.43509913780397225	0.0	0.9418494086855349	-0.4446347107036162	0.0
219	7.3305439330543924	0.9578759135315623	-0.5492217645855418	0.0	0.9571294994049839	-0.5498050888801966	0.0	0.950315443168733	-0.6665039621590074	0.0	0.9369332761920118	-0.78431506801043	0.0	0.9754228428239337	-0.8054406902025836	0.0	0.9648167875127756	-0.809876077692168	0.0	0.9301789428141277	-0.8014709249265165	0.0	0.9578872735619969	-0.5493981190790337	0.0	0.9512807094672096	-0.666214063195128	0.0	0.9383250312416854	-0.7777655714601432	0.0	0.9779409915034196	-0.8001837503637556	0.0	0.9737923773501339	-0.797784957224074	0.0	0.9264911006615595	-0.7929726894455912	0.0	0.9741755830626578	-0.392784048835653	0.0	1.0037155576767494	-0.31923484047388656	0.0	1.0133998932543884	-0.36072068857695705	0.0	0.9640974098116295	-0.4078299602573818	0.0	0.9347350925709604	-0.4552591311042859	0.0	0.937224336163593	-0.48650551719575813	0.0	0.9683407032284126	-0.4091129121620242	0.0	0.9427920798126178	-0.4534227501598555	0.0	0.9508101645749844	-0.48358890335890486	0.0
220	7.364016736401673	0.9559583287621286	-0.5519514097237859	0.0	0.9558204374385232	-0.5530707574134103	0.0	0.9480952873547784	-0.6683891938763745	0.0	0.9363137720907158	-0.7857555531613971	0.0	0.9756073246586013	-0.8071831425531938	0.0	0.9651958744997216	-0.8114371365582479	0.0	0.9301331401908293	-0.8031800545085725	0.0	0.9541422757984069	-0.5524160763222871	0.0	0.9490960538384371	-0.6677753535504422	0.0	0.9373495646909188	-0.7787053832995093	0.0	0.9768186775200668	-0.8013692518616665	0.0	0.9726217518276208	-0.7993128201460358	0.0	0.9262409497567667	-0.7941542011514913	0.0	0.9752739069095201	-0.3933492064977596	0.0	1.0035394328526321	-0.32039503866816615	0.0	1.0142443220230393	-0.3614967710648206	0.0	0.9657176173973713	-0.41032973402835865	0.0	0.9423846690559292	-0.47385689007835397	0.0	0.9500177595801349	-0.52382108336161	0.0	0.967975486809532	-0.41135910831291916	0.0	0.9497977586751902	-0.4694918149596826	0.0	0.9622791210693811	-0.5166725431308427	0.0
221	7.397489539748953	0.9537626923675274	-0.5552853305350074	0.0	0.954534620739807	-0.5565963633897534	0.0	0.9461658106220727	-0.6711607877965239	0.0	0.935747974024965	-0.7884650437236234	0.0	0.9761061377561031	-0.8100063276957055	0.0	0.9659622842287865	-0.8139723536698098	0.0	0.9296302126027678	-0.8059013825987755	0.0	0.9504183541168325	-0.55562617278751	0.0	0.9469784864895788	-0.670237600379109	0.0	0.9364210928800755	-0.7810986531558414	0.0	0.9761139481951785	-0.8035613288343645	0.0	0.9716875336125139	-0.8016902529161022	0.0	0.9257644884221354	-0.7964742334544984	0.0	0.9759963949044915	-0.3953150709630359	0.0	1.0024487037960264	-0.3226720459550112	0.0	1.014375414536053	-0.36350190782928155	0.0	0.9675223943511697	-0.4140511005627467	0.0	0.9515017145336293	-0.48858653625885123	0.0	0.9648022522448848	-0.5517937672737718	0.0	0.9674026596299239	-0.41461369936776543	0.0	0.9583609120836495	-0.4824598735057261	0.0	0.9754692727222287	-0.5402660961226831	0.0
